<svg width="289" height="271" viewBox="0 0 289 271" fill="none" xmlns="http://www.w3.org/2000/svg">
<g clip-path="url(#clip0_4_276)">
<path d="M119.892 203.325C170.504 203.325 211.534 162.198 211.534 111.466C211.534 60.7337 170.504 19.607 119.892 19.607C69.2789 19.607 28.2492 60.7337 28.2492 111.466C28.2492 162.198 69.2789 203.325 119.892 203.325Z" fill="#E6E6E6"/>
<path d="M198.747 111.466C198.756 123.799 195.882 135.963 190.354 146.982C184.827 158.001 176.801 167.569 166.919 174.917C166.258 175.413 165.585 175.895 164.907 176.365C151.693 185.573 135.985 190.507 119.892 190.507C103.798 190.507 88.0903 185.573 74.876 176.365C74.1983 175.895 73.5248 175.413 72.8641 174.917C62.9891 167.562 54.9678 157.993 49.4413 146.976C43.9148 135.958 41.0365 123.798 41.0365 111.466C41.0365 99.1342 43.9148 86.9735 49.4413 75.956C54.9678 64.9385 62.9891 55.3698 72.8641 48.0149C73.5248 47.5193 74.1983 47.0365 74.876 46.5665C88.0903 37.3593 103.798 32.4245 119.892 32.4245C135.985 32.4245 151.693 37.3593 164.907 46.5665C165.585 47.0365 166.258 47.5193 166.919 48.0149C176.801 55.3634 184.827 64.9307 190.354 75.9497C195.882 86.9687 198.756 99.1326 198.747 111.466Z" fill="white"/>
<path d="M119.892 183.671C159.675 183.671 191.927 151.344 191.927 111.466C191.927 71.588 159.675 39.2606 119.892 39.2606C80.1076 39.2606 47.8564 71.588 47.8564 111.466C47.8564 151.344 80.1076 183.671 119.892 183.671Z" fill="#1971FF"/>
<path opacity="0.2" d="M120.08 39.4624C118.987 39.4624 117.902 39.491 116.822 39.5392C135.029 41.1429 151.946 49.6236 164.147 63.2633C176.349 76.903 182.921 94.6817 182.533 112.997C182.145 131.313 174.826 148.796 162.059 161.905C149.291 175.013 132.03 182.767 113.772 183.595C115.851 183.775 117.954 183.873 120.08 183.873C139.184 183.873 157.507 176.266 171.016 162.725C184.525 149.184 192.115 130.818 192.115 111.668C192.115 92.5178 184.525 74.152 171.016 60.6109C157.507 47.0697 139.184 39.4624 120.08 39.4624Z" fill="black"/>
<path d="M120.105 34.1335C119.483 34.1346 118.888 34.3826 118.448 34.823C118.009 35.2635 117.761 35.8605 117.76 36.4834V46.7374C117.76 47.3607 118.007 47.9584 118.447 48.3991C118.887 48.8397 119.483 49.0873 120.105 49.0873C120.726 49.0873 121.323 48.8397 121.762 48.3991C122.202 47.9584 122.449 47.3607 122.449 46.7374V36.4834C122.448 35.8605 122.201 35.2635 121.761 34.823C121.322 34.3826 120.726 34.1346 120.105 34.1335Z" fill="white"/>
<path d="M166.919 48.0149C166.258 47.5193 165.585 47.0365 164.907 46.5665C164.5 46.54 164.094 46.6202 163.728 46.7992C163.361 46.9783 163.048 47.2501 162.819 47.5877L157.06 56.06C156.71 56.5751 156.579 57.2083 156.695 57.8205C156.811 58.4326 157.164 58.9735 157.678 59.3242C158.192 59.6749 158.824 59.8067 159.434 59.6905C160.045 59.5743 160.585 59.2197 160.935 58.7047L166.693 50.2323C166.912 49.9109 167.048 49.5397 167.087 49.1524C167.127 48.7651 167.069 48.3741 166.919 48.0149Z" fill="white"/>
<path d="M193.082 86.647C192.966 86.3613 192.795 86.1013 192.579 85.8819C192.363 85.6624 192.106 85.4878 191.823 85.3679C191.539 85.2481 191.235 85.1854 190.927 85.1835C190.62 85.1816 190.315 85.2404 190.03 85.3567L180.55 89.2147C179.975 89.4497 179.516 89.904 179.275 90.4779C179.033 91.0517 179.029 91.6982 179.263 92.2752C179.497 92.8522 179.95 93.3125 180.522 93.555C181.094 93.7975 181.739 93.8023 182.315 93.5684L191.795 89.7103C192.37 89.4742 192.828 89.0193 193.069 88.4451C193.311 87.871 193.315 87.2244 193.082 86.647Z" fill="white"/>
<path d="M82.7231 56.0601L76.9646 47.5877C76.7351 47.2501 76.4218 46.9783 76.0555 46.7993C75.6892 46.6202 75.2826 46.54 74.876 46.5665C74.1983 47.0365 73.5248 47.5193 72.8641 48.0149C72.7143 48.3741 72.6566 48.7651 72.696 49.1524C72.7355 49.5397 72.8709 49.9109 73.09 50.2324L78.8486 58.7047C79.1984 59.2198 79.7381 59.5744 80.3488 59.6905C80.9595 59.8067 81.5913 59.675 82.1051 59.3243C82.6189 58.9736 82.9726 58.4326 83.0885 57.8205C83.2044 57.2083 83.073 56.5751 82.7231 56.0601Z" fill="white"/>
<path d="M59.2328 89.2147L49.7532 85.3567C49.1772 85.1222 48.532 85.1267 47.9593 85.3691C47.3867 85.6115 46.9335 86.072 46.6996 86.6492C46.4656 87.2265 46.4699 87.8733 46.7117 88.4473C46.9534 89.0214 47.4127 89.4757 47.9885 89.7103L57.4682 93.5684C58.044 93.8023 58.689 93.7975 59.2613 93.555C59.8335 93.3125 60.2864 92.8521 60.5202 92.2751C60.7541 91.6982 60.7499 91.0517 60.5085 90.4778C60.2671 89.904 59.8083 89.4497 59.2328 89.2147Z" fill="white"/>
<path d="M120.105 173.845C119.483 173.846 118.888 174.094 118.448 174.534C118.009 174.975 117.761 175.572 117.76 176.195V186.449C117.76 187.072 118.007 187.67 118.447 188.11C118.887 188.551 119.483 188.798 120.105 188.798C120.726 188.798 121.323 188.551 121.762 188.11C122.202 187.67 122.449 187.072 122.449 186.449V176.195C122.448 175.572 122.201 174.975 121.761 174.534C121.322 174.094 120.726 173.846 120.105 173.845Z" fill="white"/>
<path d="M166.693 172.7L160.935 164.227C160.761 163.972 160.54 163.754 160.282 163.585C160.025 163.416 159.737 163.299 159.434 163.241C159.132 163.184 158.821 163.187 158.52 163.249C158.218 163.312 157.932 163.434 157.678 163.608C157.424 163.781 157.206 164.004 157.037 164.262C156.868 164.52 156.752 164.808 156.695 165.111C156.637 165.415 156.64 165.726 156.703 166.028C156.765 166.33 156.887 166.617 157.06 166.872L162.819 175.344C163.048 175.682 163.361 175.954 163.728 176.133C164.094 176.312 164.5 176.392 164.907 176.365C165.585 175.895 166.258 175.413 166.919 174.917C167.069 174.558 167.127 174.167 167.087 173.78C167.048 173.392 166.912 173.021 166.693 172.7Z" fill="white"/>
<path d="M191.795 133.222L182.315 129.363C181.739 129.129 181.094 129.134 180.521 129.376C179.948 129.618 179.495 130.079 179.261 130.656C179.027 131.233 179.032 131.88 179.273 132.454C179.515 133.028 179.974 133.483 180.55 133.717L190.03 137.575C190.606 137.809 191.251 137.804 191.823 137.562C192.395 137.319 192.848 136.859 193.082 136.282C193.316 135.705 193.312 135.059 193.07 134.485C192.829 133.911 192.37 133.457 191.795 133.222Z" fill="white"/>
<path d="M82.1051 163.608C81.5912 163.257 80.9595 163.125 80.3489 163.242C79.7382 163.358 79.1986 163.712 78.8486 164.227L73.0901 172.7C72.8709 173.021 72.7355 173.392 72.696 173.78C72.6566 174.167 72.7144 174.558 72.8641 174.917C73.5248 175.413 74.1983 175.895 74.876 176.365C75.2827 176.392 75.6892 176.312 76.0555 176.133C76.4218 175.954 76.7351 175.682 76.9646 175.344L82.7232 166.872C82.8964 166.617 83.0179 166.33 83.0806 166.028C83.1433 165.726 83.146 165.415 83.0886 165.111C83.0312 164.808 82.9148 164.52 82.7461 164.261C82.5773 164.003 82.3595 163.781 82.1051 163.608Z" fill="white"/>
<path d="M60.5201 130.654C60.4043 130.368 60.2335 130.108 60.0175 129.889C59.8014 129.669 59.5443 129.495 59.2609 129.375C58.9775 129.255 58.6733 129.192 58.3657 129.19C58.0581 129.188 57.7531 129.247 57.4682 129.364L47.9886 133.222C47.4131 133.457 46.9543 133.911 46.7129 134.485C46.4715 135.059 46.4673 135.705 46.7012 136.282C46.935 136.859 47.3879 137.319 47.9601 137.562C48.5324 137.804 49.1774 137.809 49.7532 137.575L59.2329 133.717C59.808 133.481 60.2664 133.026 60.5076 132.452C60.7489 131.878 60.7534 131.231 60.5201 130.654Z" fill="white"/>
<path d="M123.146 110.3C123.363 111.584 123.062 112.903 122.31 113.965C121.559 115.028 120.417 115.748 119.136 115.968L77.5355 123.061C76.9009 123.169 76.2512 123.151 75.6236 123.007C74.996 122.864 74.4028 122.598 73.8777 122.225C73.3526 121.851 72.9061 121.378 72.5635 120.832C72.2209 120.285 71.989 119.677 71.8811 119.041C71.7731 118.405 71.7913 117.753 71.9344 117.124C72.0775 116.495 72.3428 115.901 72.7152 115.374C73.0876 114.848 73.5598 114.4 74.1048 114.057C74.6498 113.714 75.2569 113.481 75.8915 113.373L117.492 106.28C118.773 106.063 120.088 106.364 121.149 107.118C122.209 107.872 122.927 109.016 123.146 110.3Z" fill="#3F3D56"/>
<path d="M166.93 156.499C166.332 157.101 165.521 157.442 164.673 157.445C163.826 157.448 163.011 157.115 162.409 156.517L117.627 111.981C117.026 111.382 116.686 110.569 116.683 109.719C116.68 108.87 117.014 108.054 117.611 107.451C118.208 106.848 119.019 106.507 119.866 106.504C120.714 106.5 121.528 106.834 122.13 107.431L166.912 151.967C167.513 152.566 167.853 153.38 167.856 154.23C167.859 155.079 167.526 155.895 166.93 156.499Z" fill="#3F3D56"/>
<path d="M119.892 117.02C122.952 117.02 125.433 114.534 125.433 111.466C125.433 108.398 122.952 105.912 119.892 105.912C116.831 105.912 114.35 108.398 114.35 111.466C114.35 114.534 116.831 117.02 119.892 117.02Z" fill="#CCCCCC"/>
<path d="M81.7241 15.1545C73.2184 28.5585 60.2408 37.4539 44.236 43.2977C43.9198 43.5352 43.56 43.7078 43.1771 43.8059C42.7943 43.9039 42.396 43.9254 42.0049 43.8691C41.6137 43.8129 41.2375 43.6799 40.8977 43.4779C40.5578 43.2759 40.261 43.0087 40.0241 42.6917C31.3305 31.0566 33.2935 14.4278 44.7672 5.53718C47.5412 3.39148 50.7127 1.81948 54.0978 0.912432C57.4828 0.0053876 61.0138 -0.218632 64.4859 0.253386C67.958 0.725404 71.302 1.88405 74.3237 3.66207C77.3454 5.44008 79.9846 7.80204 82.0882 10.6108L82.3287 10.9326C82.5655 11.2496 82.7378 11.6103 82.8356 11.994C82.9334 12.3778 82.9548 12.7771 82.8987 13.1691C82.8425 13.5611 82.7099 13.9383 82.5084 14.2789C82.3068 14.6196 82.0403 14.9171 81.7241 15.1545Z" fill="#E6E6E6"/>
<path d="M157.695 10.6108C159.799 7.80204 162.438 5.44007 165.459 3.66206C168.481 1.88405 171.825 0.725405 175.297 0.253388C178.769 -0.21863 182.3 0.00538292 185.685 0.912427C189.07 1.81947 192.242 3.39148 195.016 5.53718C206.49 14.4277 208.453 31.0566 199.759 42.6917C199.522 43.0087 199.225 43.2759 198.885 43.4779C198.546 43.6799 198.169 43.8129 197.778 43.8691C197.387 43.9254 196.989 43.9039 196.606 43.8059C196.223 43.7078 195.863 43.5352 195.547 43.2977C180.689 37.5959 168.505 27.7289 158.059 15.1545C157.42 14.675 156.998 13.9608 156.884 13.1691C156.771 12.3773 156.976 11.5728 157.454 10.9326L157.695 10.6108Z" fill="#E6E6E6"/>
<path d="M153.967 191.049C153.425 191.354 153.026 191.862 152.857 192.462C152.688 193.061 152.763 193.703 153.066 194.247L166.596 218.482C166.899 219.026 167.406 219.427 168.004 219.596C168.603 219.765 169.244 219.689 169.786 219.385C170.329 219.081 170.728 218.573 170.897 217.973C171.066 217.373 170.991 216.731 170.687 216.187L157.157 191.952C156.853 191.409 156.346 191.009 155.748 190.84C155.15 190.671 154.51 190.746 153.967 191.049Z" fill="#E6E6E6"/>
<path d="M82.6256 191.952L69.0959 216.187C68.7924 216.731 68.7169 217.373 68.8859 217.973C69.0549 218.573 69.4546 219.081 69.9971 219.385C70.5396 219.689 71.1805 219.765 71.7788 219.596C72.3771 219.426 72.8838 219.026 73.1875 218.482L86.7173 194.247C86.8677 193.978 86.9637 193.682 86.9999 193.375C87.036 193.069 87.0116 192.758 86.9279 192.461C86.8443 192.164 86.7031 191.886 86.5124 191.644C86.3217 191.402 86.0853 191.2 85.8166 191.049C85.5479 190.898 85.2522 190.802 84.9464 190.766C84.6406 190.73 84.3307 190.754 84.0344 190.838C83.7381 190.922 83.4612 191.064 83.2194 191.255C82.9777 191.446 82.7759 191.683 82.6256 191.952Z" fill="#E6E6E6"/>
<path d="M169.336 224.688C173.338 224.688 176.582 221.436 176.582 217.424C176.582 213.413 173.338 210.161 169.336 210.161C165.334 210.161 162.09 213.413 162.09 217.424C162.09 221.436 165.334 224.688 169.336 224.688Z" fill="#E6E6E6"/>
<path d="M174.451 38.8333C178.453 38.8333 181.697 35.5814 181.697 31.57C181.697 27.5586 178.453 24.3068 174.451 24.3068C170.449 24.3068 167.205 27.5586 167.205 31.57C167.205 35.5814 170.449 38.8333 174.451 38.8333Z" fill="#E6E6E6"/>
<path d="M119.465 21.7433C123.467 21.7433 126.711 18.4914 126.711 14.48C126.711 10.4686 123.467 7.21672 119.465 7.21672C115.463 7.21672 112.219 10.4686 112.219 14.48C112.219 18.4914 115.463 21.7433 119.465 21.7433Z" fill="#E6E6E6"/>
<path d="M67.0374 37.9788C71.0393 37.9788 74.2835 34.7269 74.2835 30.7155C74.2835 26.7041 71.0393 23.4523 67.0374 23.4523C63.0354 23.4523 59.7912 26.7041 59.7912 30.7155C59.7912 34.7269 63.0354 37.9788 67.0374 37.9788Z" fill="#E6E6E6"/>
<path d="M71.726 224.688C75.728 224.688 78.9722 221.436 78.9722 217.424C78.9722 213.413 75.728 210.161 71.726 210.161C67.7241 210.161 64.4799 213.413 64.4799 217.424C64.4799 221.436 67.7241 224.688 71.726 224.688Z" fill="#E6E6E6"/>
<path d="M196.49 253.516L196.801 254.306H196.49V253.516Z" fill="#2F2E41"/>
<path d="M249.561 131.711C249.561 131.711 244.377 105.909 246.361 102.699C246.361 102.699 246.433 99.7146 246.314 95.9107C246.314 95.7662 246.314 95.6217 246.314 95.474C246.663 95.7069 247.027 95.9168 247.404 96.1023C249.232 97.042 251.331 97.3131 253.338 96.8687L251.768 95.1191C251.391 94.7013 250.999 94.249 250.917 93.6961C250.835 93.1433 251.061 92.6501 251.256 92.1569C252.748 88.3875 252.826 83.6474 249.953 80.7701C247.526 78.3514 246.936 75.229 244.301 73.0208C242.377 71.4031 241.318 69.0315 240.32 66.7384C239.475 64.8003 238.624 62.8464 238.141 60.7921C237.764 59.187 237.613 57.5253 237.095 55.9578C236.577 54.3904 235.607 52.8669 234.09 52.1664C233.55 51.9182 232.951 51.7769 232.458 51.447C231.811 51.0104 231.421 50.3005 230.954 49.6786C228.577 46.5374 220.617 48.3875 216.849 49.6629C215.825 49.984 214.876 50.5098 214.061 51.2083L214.096 51.1518C214.124 51.1047 214.158 51.0575 214.19 51.0104C213.777 51.3441 213.421 51.7418 213.135 52.1884C212.585 53.0585 212.356 54.0731 211.898 55.0154C211.345 56.1306 208.271 59.2435 209.593 60.4968C209.686 60.581 209.792 60.649 209.907 60.6979C210.403 60.9045 210.95 60.9591 211.477 60.8549L211.42 60.99C210.969 62.0958 210.737 63.2791 210.739 64.4736C210.739 69.6346 214.994 73.8186 220.247 73.8186C221.234 73.8196 222.216 73.6681 223.157 73.3694C223.179 73.4888 223.198 73.6082 223.22 73.7275C223.22 73.7747 223.236 73.8218 223.242 73.8689L223.076 74.1014C223.067 74.087 223.058 74.0734 223.047 74.0605L218.118 80.9523C217.364 81.4832 213.025 84.6244 212.78 86.9802C212.522 89.5592 212.265 92.5778 212.265 92.5778L212.23 93.2249C212.015 93.405 211.763 93.5362 211.492 93.6094C211.221 93.6826 210.937 93.6961 210.661 93.649C209.122 93.3977 209.122 99.3031 209.122 99.3031C209.122 99.3031 208.098 100.246 207.395 99.4288C206.692 98.6121 204.833 101.379 204.833 101.379L193.184 101.882L192.917 101.898L192.289 99.9534C192.221 99.7483 192.076 99.5781 191.883 99.4799C191.691 99.3817 191.468 99.3633 191.262 99.4288C191.214 99.4448 191.166 99.4648 191.121 99.4885L191.077 99.5136L190.995 99.5701L190.955 99.6078C190.932 99.6283 190.911 99.6503 190.892 99.6738L190.854 99.7178L190.835 99.7366C190.763 99.8369 190.715 99.9528 190.695 100.075C190.675 100.197 190.685 100.322 190.722 100.44L191.262 102.108C189.014 102.561 186.716 103.836 188.59 107.348L179.089 105.592L182.163 108.174L198.032 111.45C197.822 111.827 197.96 112.374 198.616 113.143C201.442 116.463 206.591 117.365 208.664 117.597C209.211 118.822 209.894 119.981 210.701 121.053L210.522 124.36C210.522 124.36 205.276 149.572 204.315 150.85C204.8 150.3 205.244 149.716 205.643 149.101C204.12 154.28 201.991 161.37 201.432 162.432C200.534 164.128 199.702 170.991 200.726 171.431C201.04 171.566 201.938 171.5 203.219 171.403V171.972L203.162 193.517C203.162 193.517 203.42 206.732 202.713 207.992C202.007 209.251 201.819 211.893 201.819 211.893C201.819 211.893 198.993 217.104 196.754 219.199C196.739 219.216 196.722 219.23 196.704 219.243L196.635 218.753C196.635 218.753 193.944 222.152 187.991 221.961C187.991 221.961 184.408 224.291 189.721 224.417C195.033 224.543 201.819 224.228 201.819 224.228C201.819 224.228 206.557 217.004 210.526 217.946V223.421H211.741V217.858C212.304 217.487 212.786 217.005 213.158 216.442C213.53 215.879 213.784 215.246 213.904 214.582C214.008 213.897 213.932 213.197 213.683 212.551C213.434 211.905 213.021 211.335 212.485 210.897C212.244 210.679 212.051 210.414 211.917 210.118C211.784 209.821 211.713 209.501 211.709 209.176L211.665 209.214C211.665 209.104 211.637 208.991 211.624 208.874C211.276 206.047 210.839 200.214 212.381 195.898C214.494 189.98 215.135 181.738 213.596 176.831C213.1 175.263 212.692 173.667 212.375 172.053C212.337 171.849 212.303 171.654 212.271 171.472C213.323 171.614 214.364 171.824 215.389 172.1C218.953 173.084 226.749 173.266 233.406 173.212C233.422 173.394 233.44 173.586 233.462 173.778C233.581 175.11 233.829 176.427 234.203 177.71C235.039 180.223 235.422 191.302 235.422 191.302C235.422 191.302 236.499 200.412 235.912 204.119C235.598 206.179 235.284 208.249 235.105 210.329V210.37C235.105 210.37 233.34 215.395 232.049 218.125C232.018 218.194 231.984 218.263 231.952 218.329C231.608 218.361 231.269 218.436 230.944 218.552C230.944 218.552 229.214 222.008 227.49 222.579C225.767 223.151 226.338 225.033 230.241 224.342C234.144 223.65 240.037 223.085 240.037 223.085L240.292 219.561L241.491 218.059L241.177 221.574L242.455 221.323L242.285 217.048L244.248 214.591C244.248 214.591 246.619 212.48 243.096 208.328V208.419C243.058 208.359 243.023 208.296 242.983 208.237V208.218C242.399 207.313 241.934 205.626 242.785 202.633C244.323 197.224 245.218 192.314 245.218 192.314C245.218 192.314 248.653 179.162 244.524 172.939H244.706C244.283 172.063 243.984 171.133 243.818 170.175C243.797 170.062 243.778 169.945 243.761 169.826C246.816 169.65 249.815 169.097 252.261 167.904C252.251 167.891 250.779 136.68 249.561 131.711ZM210.774 109.942V110.005L210.146 110.037L210.774 109.942ZM208.62 110.241C208.516 110.264 208.42 110.31 208.337 110.376C208.067 110.758 207.898 111.202 207.844 111.667L206.864 111.447C206.864 111.447 206.177 111.299 205.188 111.133L204.72 110.662C206.007 110.555 207.345 110.398 208.62 110.241Z" fill="url(#paint0_linear_4_276)"/>
<path d="M212.45 195.958C210.94 200.261 211.367 206.069 211.706 208.89C211.832 209.933 211.948 210.567 211.948 210.567C211.948 210.567 209.69 215.713 209.502 215.907C209.313 216.102 202.858 220.044 202.858 220.044L198.346 222.68C198.346 222.68 193.768 220.673 195.963 219.982C196.411 219.802 196.815 219.526 197.146 219.174C199.344 217.085 202.104 211.893 202.104 211.893C202.104 211.893 202.293 209.258 202.983 208.004C203.674 206.751 203.423 193.58 203.423 193.58L203.476 172.11V169.311L212.064 169.374C212.118 170.324 212.242 171.269 212.435 172.201C212.743 173.81 213.142 175.4 213.631 176.963C215.144 181.86 214.516 190.062 212.45 195.958Z" fill="#FFB0B1"/>
<path d="M211.791 209.188L198.845 220.855L197.341 220.918L197.027 218.719C197.027 218.719 194.396 222.105 188.549 221.917C188.549 221.917 185.039 224.238 190.242 224.364C195.445 224.489 202.089 224.175 202.089 224.175C202.089 224.175 206.729 216.95 210.613 217.893V223.349H211.807V217.842C212.361 217.469 212.835 216.987 213.198 216.425C213.562 215.864 213.809 215.235 213.923 214.576C214.026 213.897 213.953 213.202 213.71 212.56C213.468 211.917 213.064 211.348 212.538 210.907C212.303 210.686 212.116 210.42 211.987 210.125C211.859 209.829 211.792 209.511 211.791 209.188Z" fill="#1D2366"/>
<path d="M242.226 202.667C241.391 205.651 241.846 207.332 242.417 208.234V208.252C243.15 209.366 243.66 210.61 243.918 211.918L243.968 212.201L238.078 220.792L234.882 222.049C234.882 222.049 229.742 220.293 230.68 219.79C230.916 219.667 231.283 219.014 231.704 218.113C232.96 215.395 234.693 210.382 234.693 210.382V210.341C234.875 208.271 235.164 206.207 235.485 204.153C236.059 200.456 235.004 191.381 235.004 191.381C235.004 191.381 234.627 180.346 233.811 177.836C233.442 176.56 233.197 175.252 233.079 173.929C232.91 172.358 232.872 171.064 232.872 171.064C232.872 171.064 236.257 166.352 242.461 171.441C242.957 171.847 243.394 172.32 243.758 172.848C248.044 178.948 244.593 192.386 244.593 192.386C244.593 192.386 243.73 197.274 242.226 202.667Z" fill="#FFB0B1"/>
<path d="M235.205 220.352C235.205 220.352 233.635 217.469 230.627 218.533C230.627 218.533 228.935 221.989 227.242 222.548C225.55 223.107 226.115 224.992 229.939 224.304C233.764 223.616 239.529 223.047 239.529 223.047L239.78 219.532L243.667 214.579C243.667 214.579 245.984 212.477 242.537 208.34V209.06C242.537 209.06 243.227 211.887 242.411 212.323C241.595 212.76 237.971 219.912 237.971 219.912L235.205 220.352Z" fill="#1D2366"/>
<path d="M244.107 173.065C244.107 173.065 222.102 174.13 215.395 172.248C208.689 170.366 202.041 171.997 201.04 171.56C200.038 171.123 200.851 164.285 201.731 162.592C202.61 160.899 207.433 143.776 207.433 143.776L212.073 119.57L216.962 118.223L217.308 118.125L225.826 115.776L232.068 114.051C232.068 114.051 244.48 162.529 243.416 166.104C243.029 167.473 242.967 168.913 243.234 170.31C243.396 171.264 243.69 172.191 244.107 173.065Z" fill="#1D2366"/>
<path d="M231.412 72.0376C231.412 72.0376 230.897 72.5276 230.122 73.2501C229.016 74.2835 227.38 75.7945 225.93 77.0604C223.92 78.81 222.262 80.0948 222.856 78.9985C223.449 77.9022 223.336 75.9923 223.041 74.205C223.019 74.0856 223 73.9663 222.978 73.8501C222.734 72.5374 222.41 71.2408 222.008 69.9675C222.008 69.9675 225.255 65.7709 227.051 64.1155C227.72 63.4873 228.187 63.2297 228.216 63.6663C228.247 64.2537 228.687 65.551 229.233 66.9269C229.249 66.9708 229.264 67.0117 229.283 67.0556C229.647 67.998 230.059 68.9655 230.42 69.8011C230.972 71.0827 231.412 72.0376 231.412 72.0376Z" fill="#FFB0B1"/>
<path opacity="0.1" d="M229.283 67.0556C228.978 68.6973 228.238 70.2269 227.14 71.4846C226.042 72.7422 224.626 73.6818 223.041 74.205C222.791 72.7711 222.446 71.3554 222.008 69.9675C222.008 69.9675 228.121 62.0674 228.216 63.6663C228.238 64.2725 228.715 65.617 229.283 67.0556Z" fill="black"/>
<path d="M227.698 87.7938L225.814 115.779L225.616 118.744L217.279 118.245L216.965 118.226L210.686 117.849L211.109 102.89L212.802 95.3515L216.987 84.3919L219.477 80.7701L222.441 76.4887L223.233 75.3767C223.233 75.3767 223.757 78.5744 225.685 77.164L225.726 77.1357C227.61 75.9421 227.698 87.7938 227.698 87.7938Z" fill="#1D2366"/>
<path opacity="0.03" d="M213.012 92.7318C213.012 92.7318 212.262 94.3024 210.755 94.0479C209.248 93.7935 209.251 99.7021 209.251 99.7021C209.251 99.7021 208.249 100.644 207.558 99.8277C206.867 99.011 205.046 101.772 205.046 101.772L193.636 102.275C193.636 102.275 198.713 104.596 197.718 111.62C197.718 111.62 214.956 110.552 215.521 108.921C216.086 107.291 213.012 92.7318 213.012 92.7318Z" fill="black"/>
<path d="M179.852 105.966L182.86 108.535L207.621 113.74L204.55 110.605L179.852 105.966Z" fill="white"/>
<path d="M222.479 77.3054C222.068 77.9336 220.89 81.1502 219.907 83.9584C219.088 86.2986 218.403 88.3561 218.403 88.3561C218.403 88.3561 216.805 98.766 215.989 100.648C215.173 102.529 215.615 109.867 215.615 109.867L212.573 127.989C212.573 127.989 211.194 137.334 209.065 142.916C206.965 148.409 204.626 150.985 204.553 151.067C205.495 149.792 210.629 124.681 210.629 124.681L212.325 93.0113C212.325 93.0113 212.573 90.0021 212.824 87.4294C213.075 84.8568 218.162 81.3449 218.162 81.3449L223.066 74.3683C223.559 75.028 223.229 76.1777 222.479 77.3054Z" fill="white"/>
<path d="M209.69 118.006C209.69 118.006 202.469 117.692 198.971 113.489C195.473 109.286 207.056 111.811 207.056 111.811L210.067 112.502L209.69 118.006Z" fill="#FFB0B1"/>
<path d="M251.501 168.039C242.913 172.304 227.305 168.353 227.305 168.353C225.735 169.798 221.6 171.928 221.6 171.928L219.342 143.971C217.904 140.201 217.339 120.453 217.339 120.453C217.339 120.453 219.154 105.717 219.907 104.213C220.127 103.773 220.021 103.12 219.76 102.416C218.479 99.067 218.007 95.4623 218.385 91.8962L218.987 86.7729L219.154 85.3374C222.102 84.0181 224.36 79.8152 224.36 79.8152L225.93 77.0635L228.818 71.9936L230.187 69.5937L230.42 69.8042L232.194 71.4125C232.194 71.4125 232.947 72.0407 234.078 72.9831C236.536 75.0563 240.785 78.7063 242.976 80.9397C244.904 82.9061 245.513 90.5549 245.689 96.3127C245.805 100.104 245.736 103.076 245.736 103.076C243.793 106.277 248.876 131.975 248.876 131.975C250.06 136.941 251.501 168.039 251.501 168.039Z" fill="white"/>
<path opacity="0.03" d="M234.263 78.81C234.263 78.81 228.369 90.0366 229.06 94.2992C229.751 98.5618 231.691 103.393 230.749 104.524C230.428 104.952 230.012 105.299 229.533 105.538C229.055 105.777 228.528 105.902 227.993 105.903C227.051 105.966 224.539 107.722 224.539 107.91C224.539 108.098 222.218 108.098 220.143 108.975C218.067 109.851 215.003 110.354 215.003 110.354C215.003 110.354 209.037 110.165 208.485 110.731C207.932 111.296 207.354 114.682 208.547 117.378C209.74 120.073 211.059 122.089 212.058 122.457C213.056 122.824 219.392 120.701 224.532 120.202C229.672 119.702 235.252 115.622 235.252 115.622C235.252 115.622 241.394 113.423 242.458 109.729C243.523 106.035 241.142 85.708 241.142 85.708C241.142 85.708 239.34 76.2405 234.263 78.81Z" fill="black"/>
<path d="M234.831 79.1869C234.831 79.1869 228.938 90.4136 229.629 94.6762C230.319 98.9388 232.26 103.77 231.321 104.898C231 105.326 230.583 105.674 230.104 105.914C229.625 106.154 229.097 106.279 228.561 106.28C227.619 106.343 225.107 108.098 225.107 108.284C225.107 108.469 222.79 108.472 220.711 109.352C218.633 110.231 215.571 110.731 215.571 110.731C215.571 110.731 209.606 110.542 209.05 111.108C208.494 111.673 207.923 115.059 209.113 117.755C210.303 120.45 211.624 122.466 212.623 122.834C213.621 123.201 219.958 121.078 225.098 120.575C230.238 120.073 235.817 115.999 235.817 115.999C235.817 115.999 241.962 113.8 243.039 110.103C244.116 106.405 241.739 86.085 241.739 86.085C241.739 86.085 239.905 76.63 234.831 79.1869Z" fill="white"/>
<path opacity="0.1" d="M234.703 109.298C234.703 109.298 229.993 108.356 231.632 109.927C233.271 111.497 233.261 112.873 235.268 112.81C237.274 112.747 234.703 109.298 234.703 109.298Z" fill="black"/>
<path opacity="0.1" d="M242.662 143.091C242.662 143.091 240.533 144.533 244.606 147.857C248.678 151.18 242.662 143.091 242.662 143.091Z" fill="black"/>
<path opacity="0.1" d="M238.599 154.943C238.599 155.132 237.846 161.854 240.665 163.534C243.485 165.215 238.599 154.943 238.599 154.943Z" fill="black"/>
<path d="M193.831 102.259C191.557 102.338 186.647 103.032 189.193 107.784C191.444 111.99 195.228 109.179 197.357 107.046C196.837 105.058 195.575 103.344 193.831 102.259Z" fill="#FFB0B1"/>
<path d="M229.437 64.9825C229.438 66.8681 228.867 68.7096 227.798 70.2628C226.536 72.0993 224.657 73.4222 222.504 73.9916C220.35 74.5611 218.063 74.3392 216.059 73.3664C214.055 72.3935 212.465 70.7341 211.579 68.6892C210.693 66.6444 210.569 64.3495 211.23 62.2211C211.891 60.0927 213.292 58.2717 215.18 57.0885C217.068 55.9054 219.317 55.4385 221.52 55.7725C223.723 56.1066 225.733 57.2195 227.185 58.9093C228.638 60.599 229.437 62.7538 229.437 64.9825Z" fill="#FFB0B1"/>
<path d="M212.039 55.584C212.488 54.6699 212.711 53.6459 213.248 52.7789C214.036 51.5225 215.411 50.7183 216.824 50.2314C220.513 48.9592 228.31 47.1122 230.64 50.2314C231.098 50.8597 231.478 51.557 232.112 51.9905C232.596 52.3203 233.18 52.4617 233.71 52.7098C235.196 53.4072 236.144 54.9275 236.649 56.4793C237.155 58.031 237.306 59.6958 237.676 61.2947C238.15 63.3459 238.982 65.2903 239.811 67.2221C240.788 69.5027 241.824 71.868 243.708 73.4794C246.279 75.6782 246.848 78.7912 249.234 81.2036C252.06 84.0684 251.969 88.7959 250.512 92.5496C250.32 93.0428 250.104 93.5579 250.179 94.0825C250.254 94.6071 250.644 95.0845 251.011 95.5023L252.556 97.2457C248.901 98.1284 244.766 96.2185 243.064 92.8669C242.54 91.8303 242.191 90.6366 241.293 89.8984C240.489 89.2388 239.409 89.0817 238.408 88.7865C235.105 87.8064 232.335 84.7877 232.232 81.345C232.181 79.7272 232.687 78.1095 232.458 76.5075C232.33 75.593 231.968 74.7271 231.406 73.9946C230.542 72.8669 229.239 72.1098 228.536 70.8534C227.346 68.7519 228.25 66.0222 227.393 63.7668C227.129 63.0758 226.602 62.3847 225.864 62.3313C225.126 62.2779 224.495 62.8904 223.788 63.1637C222.319 63.7354 220.73 62.7648 219.502 61.769C218.275 60.7733 216.89 59.6424 215.326 59.8655C214.293 60.01 213.48 60.7136 212.529 61.0811C211.825 61.3513 210.4 61.5931 209.784 60.9994C208.485 59.8026 211.496 56.7023 212.039 55.584Z" fill="#591D4B"/>
<path opacity="0.1" d="M243.937 91.8303C243.409 90.7937 243.064 89.6 242.166 88.865C241.362 88.2053 240.282 88.0451 239.277 87.7498C235.977 86.7729 233.208 83.7542 233.101 80.3115C233.051 78.6938 233.556 77.0729 233.33 75.4709C233.199 74.5622 232.837 73.7025 232.279 72.9737C231.412 71.846 230.109 71.0889 229.409 69.8325C228.219 67.7341 229.123 65.0044 228.263 62.7459C228.002 62.058 227.471 61.367 226.737 61.3104C226.002 61.2539 225.365 61.8727 224.661 62.146C223.192 62.7177 221.6 61.7439 220.375 60.7513C219.151 59.7587 217.76 58.6247 216.199 58.8446C215.166 58.9922 214.35 59.6958 213.402 60.0602C212.698 60.3304 211.27 60.5754 210.654 59.9817C209.361 58.7252 212.372 55.6311 212.912 54.5191C213.361 53.6019 213.584 52.581 214.124 51.7141C214.152 51.6669 214.183 51.6198 214.215 51.5727C213.811 51.9075 213.462 52.304 213.182 52.7475C212.645 53.6145 212.422 54.6322 211.973 55.5526C211.43 56.6646 208.419 59.7681 209.715 61.0151C210.343 61.612 211.756 61.3669 212.46 61.0968C213.402 60.7293 214.224 60.0257 215.257 59.8812C216.827 59.6581 218.209 60.7921 219.433 61.7847C220.658 62.7773 222.259 63.7511 223.722 63.1794C224.426 62.9061 225.041 62.2905 225.795 62.347C226.548 62.4035 227.051 63.0915 227.324 63.7825C228.181 66.0379 227.277 68.7676 228.467 70.8691C229.17 72.1036 230.473 72.8763 231.337 74.0103C231.898 74.7428 232.261 75.6087 232.388 76.5232C232.618 78.1252 232.112 79.7429 232.162 81.3607C232.266 84.816 235.035 87.8221 238.339 88.8021C239.334 89.0974 240.42 89.2545 241.224 89.9141C242.125 90.6523 242.48 91.846 242.995 92.8826C244.697 96.2342 248.832 98.1441 252.487 97.2614L251.758 96.4384C248.59 96.4855 245.384 94.6825 243.937 91.8303Z" fill="black"/>
<path d="M193.963 109.396L191.243 100.817C191.211 100.717 191.199 100.611 191.208 100.506C191.217 100.401 191.246 100.298 191.295 100.205C191.343 100.111 191.41 100.028 191.49 99.9599C191.571 99.892 191.664 99.8407 191.765 99.8089C191.967 99.7457 192.186 99.765 192.374 99.8627C192.562 99.9603 192.704 100.128 192.769 100.33L195.489 108.899L195.219 110.693L193.963 109.396Z" fill="#BE8B87"/>
<path d="M193.963 109.396L195.489 108.912L195.266 110.382L195.218 110.706L194.773 110.241L193.963 109.396Z" fill="#EFC8C4"/>
<path d="M194.773 110.241C194.799 110.207 194.832 110.179 194.87 110.159C194.892 110.145 194.918 110.138 194.944 110.138C194.97 110.138 194.995 110.145 195.018 110.159C195.039 110.185 195.057 110.213 195.071 110.244C195.092 110.279 195.12 110.308 195.154 110.33C195.187 110.353 195.226 110.367 195.266 110.373L195.218 110.687L194.773 110.241Z" fill="#727A9C"/>
<path d="M191.228 103.864C191.228 103.864 196.682 103.833 195.397 106.154C194.113 108.475 192.107 108.755 192.107 108.755L191.228 103.864Z" fill="#FFB0B1"/>
<path d="M65.4391 107.3C65.4391 107.3 64.2255 107.13 64.2255 105.361C64.2255 103.593 63.3568 100.289 63.3568 100.289C63.3568 100.274 62.6053 94.536 61.5672 93.6239C60.5292 92.7118 59.1954 87.356 59.1954 87.356C59.1954 87.356 58.9675 84.4501 58.5024 83.8246C58.0372 83.199 57.4089 81.6675 56.4817 79.4827C55.5546 77.2979 51.6888 75.7848 51.6888 75.7848C51.6888 75.7848 44.6997 71.7295 42.7191 70.4076C42.5391 70.2989 42.3708 70.1719 42.217 70.0285C41.872 69.5755 40.3689 69.5663 40.3689 69.5663C40.2118 68.574 40.0608 67.4339 40.0116 66.4016C40.0116 66.2906 40.0116 66.1797 39.9962 66.0688C42.2047 64.7627 43.8682 62.7036 44.6812 60.2693C44.7182 60.1522 44.749 60.0289 44.7829 59.9118C44.9152 59.8682 45.037 59.7975 45.1404 59.7041C45.2438 59.6107 45.3267 59.4967 45.3835 59.3695C45.5622 58.972 45.5653 58.5067 45.787 58.1369C46.0458 57.6993 46.5386 57.4651 46.9267 57.1354C47.9063 56.3034 48.1588 54.9012 48.1126 53.6255C48.0818 52.5932 47.9155 51.5516 47.9802 50.5255L47.9987 50.2666C48.0172 50.1125 48.0387 49.9585 48.0664 49.8105C48.2174 49.0463 48.547 48.3252 48.7318 47.5672C48.9166 46.8091 48.9351 45.9555 48.5038 45.3022C47.8724 44.3439 46.5571 44.1528 45.402 44.0542C44.0929 43.9433 42.9224 44.0881 42.0846 43.0003C41.6925 42.4318 41.2513 41.8987 40.7662 41.4072C40.5937 41.2469 38.9181 40.2239 38.9181 40.1561C37.2826 39.3983 35.4288 39.2561 33.697 39.7555C32.8284 40.0082 32.009 40.4211 31.1281 40.6276C29.2276 41.0775 27.0406 40.5906 25.4265 41.6784C24.5271 42.2947 23.988 43.2746 23.4829 44.2299C23.0722 45.0167 22.6553 45.8025 22.2323 46.5872C21.5516 47.8784 20.8585 49.1912 20.572 50.621C20.5118 50.9321 20.4747 51.2473 20.4611 51.5639V51.5793C20.4611 51.6934 20.4611 51.8074 20.4611 51.9214V52.0662C20.4611 52.1741 20.4611 52.2789 20.4796 52.3744C20.4981 52.4699 20.495 52.5007 20.5043 52.5654C20.5135 52.6301 20.5289 52.775 20.5474 52.8736C20.5659 52.9722 20.6028 53.1448 20.6398 53.2804C20.6552 53.3389 20.6768 53.3944 20.6952 53.4498C20.726 53.5546 20.763 53.6563 20.8031 53.758C20.8246 53.8104 20.8462 53.8659 20.8708 53.9182C20.917 54.0261 20.9725 54.1309 21.0279 54.2264C21.0526 54.2695 21.071 54.3096 21.0957 54.3497C21.1816 54.493 21.2763 54.6309 21.3791 54.7626C22.0382 55.5853 23.0085 56.1092 23.7262 56.8796C23.7262 56.9104 23.7262 56.9412 23.7262 56.969C23.7262 57.0552 23.7262 57.1384 23.7262 57.2247C23.7643 58.9428 24.2214 60.6256 25.0578 62.1267C25.8942 63.6278 27.0845 64.9017 28.5253 65.8376C28.5253 65.9547 28.5407 66.0749 28.5468 66.192C28.6069 67.1067 28.5956 68.0247 28.5129 68.9377C28.3875 68.7899 28.2305 68.6722 28.0535 68.5932C27.8765 68.5143 27.684 68.4761 27.4903 68.4816C27.358 68.4751 27.2253 68.4865 27.096 68.5155L27.0683 68.4939V68.5217C26.3906 68.6881 25.5559 69.3937 24.7581 71.3998C24.7581 71.3998 22.3309 74.1362 20.4827 74.0222C18.6346 73.9082 13.9556 76.8695 13.9556 76.8695C13.9556 76.8695 9.39069 79.834 8.41117 82.8539C7.86366 84.5664 7.20725 86.242 6.44596 87.8707L0.802924 99.5035L-0.238205 108.733C-0.238205 108.733 0.337804 112.837 0.223834 113.463C0.109864 114.088 2.59255 119.731 2.59255 119.731C2.59255 119.731 10.7953 134.149 14.1466 134.889L14.3869 134.719C14.5303 134.794 14.6823 134.851 14.8397 134.889L15.5296 134.402C15.5711 134.945 15.5535 135.49 15.4773 136.029C15.0152 137.453 15.6498 146.743 16.4568 148.565C17.2638 150.386 16.9774 174.265 16.9774 174.265L16.8634 176.373C16.8634 176.373 16.8634 176.44 16.8911 176.557L16.8634 177.057L16.9466 177.1C17.0329 177.768 17.0048 178.447 16.8634 179.106C16.5739 180.03 16.4568 182.643 16.4568 182.643C16.4568 182.643 14.1497 197.398 15.2432 200.362C16.3367 203.327 17.2669 206.575 17.2669 206.575C17.2669 206.575 18.422 210.273 17.3224 210.904C16.2227 211.536 13.0962 212.596 13.74 214.137C14.3253 215.56 16.5461 219.375 16.8757 219.933L16.848 220.226L16.3952 225.135C16.4685 225.783 16.6442 226.415 16.9158 227.008C17.4117 228.078 18.3758 229.187 20.2086 229.067C20.5166 229.045 20.8739 229.008 21.2189 228.962C24.5733 228.512 28.7039 227.015 28.7039 227.015C28.4895 226.878 28.2929 226.716 28.1187 226.531C27.9538 226.371 27.8232 226.179 27.7347 225.967C27.6463 225.755 27.6019 225.528 27.6043 225.298C27.6536 224.404 25.981 220.146 25.5651 219.098C25.5005 218.947 25.4666 218.861 25.4666 218.861C25.4666 218.861 29.2799 214.873 28.6454 211.339C28.6454 211.339 24.4254 208.874 25.8146 207.521C27.2038 206.168 29.6865 202.282 29.6865 202.282C29.6865 202.282 29.8005 187.753 29.6865 185.583C29.5676 184.078 29.6391 182.563 29.8991 181.075C29.9453 180.85 30.0007 180.631 30.0592 180.415C31.9805 180.702 33.9199 180.85 35.8624 180.856C36.5709 180.856 37.2917 180.856 38.0186 180.813C38.0186 181.018 38.0279 181.24 38.0464 181.479C38.2065 185.078 38.5053 191.389 38.7487 193.734C39.0936 197.096 41.0003 206.156 41.0003 206.156C41.0003 206.156 37.3625 208.491 41.6349 214.248C41.6349 214.248 41.6349 216.334 41.3515 216.636C41.0489 217.623 40.8052 218.627 40.6214 219.644C40.4428 220.728 40.3689 221.825 40.6584 222.395C41.3515 223.757 45.5098 223.646 45.5098 223.646L45.6115 223.628C46.3965 223.547 47.1899 223.622 47.9455 223.85C48.7011 224.078 49.4039 224.454 50.0132 224.956C51.5933 226.226 57.5906 225.668 60.8372 225.264C62.1093 225.104 62.9595 224.956 62.9595 224.956C63.0007 224.812 63.0153 224.662 63.0026 224.512C62.9687 223.714 62.3434 221.964 58.105 220.402C58.105 220.402 54.1191 217.721 54.1746 215.385H54.0914H53.6294C53.9651 215.366 54.1808 215.385 54.1808 215.385C54.1808 215.385 52.6191 209.684 53.2567 209.222C53.8943 208.759 51.9845 202.442 51.9845 202.442C51.9845 202.442 50.891 191.842 50.8325 191.099C50.835 190.462 50.9315 189.828 51.119 189.219L50.8325 183.408C50.8325 183.408 50.7771 181.476 50.8325 180.847C50.8232 180.301 50.7789 179.757 50.7001 179.217C50.6723 179.001 50.6446 178.776 50.6138 178.554C52.1077 178.175 53.078 177.824 53.078 177.824L52.9055 157.594C54.1746 155.128 54.4087 149.72 54.4025 145.884C54.4025 143.419 54.2916 141.594 54.2916 141.594L56.0258 138.762C56.0258 138.762 56.4263 135.373 55.7917 134.63C55.5114 134.294 55.6377 133.946 55.8687 133.659C55.9887 133.564 56.1153 133.478 56.2476 133.4C56.2476 133.4 56.2291 133.373 56.2076 133.333C56.3287 133.231 56.4574 133.14 56.5926 133.058C56.5926 133.058 55.9765 132.103 56.5279 131.699C57.0454 132.051 57.5074 132.316 57.8586 132.531C57.8339 132.756 57.8093 132.886 57.8093 132.886L57.9571 132.578C58.296 132.769 58.5024 132.886 58.5024 132.886C58.5024 132.886 61.2192 127.472 61.1606 126.673C61.1021 125.875 63.0088 122.513 63.0088 122.513C63.0088 122.513 63.2398 120.748 64.2809 120.008C65.322 119.268 65.088 113.91 65.088 113.91C65.088 113.91 65.3775 111.118 66.0706 109.978C66.7636 108.837 65.4391 107.3 65.4391 107.3ZM13.4566 104.924L13.509 106.215C13.201 105.719 12.9792 105.361 12.9792 105.361L13.4566 104.924Z" fill="url(#paint1_linear_4_276)"/>
<path opacity="0.1" d="M58.6502 130.547L57.9849 133.382C57.9849 133.382 52.656 130.661 51.695 127.203C50.7339 123.746 53.3029 122.433 53.3029 122.433L58.2683 124.538L58.6502 130.547Z" fill="black"/>
<path d="M28.7439 227.033C28.7439 227.033 23.8155 228.845 20.4272 229.073C18.6284 229.193 17.6827 228.09 17.1961 227.027C16.9302 226.436 16.7587 225.807 16.6878 225.163L17.1283 220.278L17.3624 217.677L24.561 215.807L25.5805 218.925L25.676 219.163C26.0857 220.204 27.7275 224.441 27.6782 225.326C27.6762 225.552 27.7199 225.777 27.8067 225.986C27.8935 226.195 28.0216 226.385 28.1833 226.543C28.3486 226.73 28.537 226.894 28.7439 227.033Z" fill="white"/>
<path d="M62.4081 224.549C62.4204 224.698 62.4058 224.847 62.365 224.99C62.365 224.99 51.8243 226.75 49.6682 224.99C49.0602 224.476 48.3516 224.095 47.5877 223.871C46.8239 223.647 46.0217 223.585 45.2326 223.69C45.2326 223.69 41.1543 223.8 40.4736 222.457C40.1902 221.893 40.2641 220.799 40.4397 219.721C40.6188 218.71 40.8574 217.711 41.1543 216.728L41.3176 216.599L42.2878 215.819L53.6478 215.483H53.7341C53.6786 217.807 57.5906 220.472 57.5906 220.472C61.7458 222.013 62.3588 223.754 62.4081 224.549Z" fill="white"/>
<path opacity="0.1" d="M62.4082 224.549C62.419 224.698 62.4033 224.847 62.362 224.99C62.362 224.99 51.8244 226.75 49.6682 224.99C49.0606 224.476 48.3525 224.095 47.5892 223.871C46.826 223.647 46.0243 223.586 45.2357 223.69C45.2357 223.69 41.1544 223.8 40.4767 222.457C40.1933 221.89 40.2642 220.799 40.4397 219.721C42.0107 219.878 44.4903 220.269 45.4636 221.203C46.936 222.623 49.431 224.041 50.9619 224.152C52.1601 224.229 59.3279 224.457 62.4082 224.549Z" fill="black"/>
<path opacity="0.1" d="M28.744 227.033C28.744 227.033 23.8156 228.845 20.4273 229.073C18.6285 229.193 17.6828 228.09 17.1992 227.024C18.4529 227.446 20.1932 227.89 21.1081 227.483C22.1923 227.002 26.0365 226.691 28.1927 226.558C28.3568 226.738 28.5419 226.898 28.744 227.033Z" fill="black"/>
<path d="M36.0565 81.0142C31.9906 79.4334 26.7603 74.2102 28.0663 71.7696C28.3564 71.1537 28.5287 70.489 28.5746 69.8097C28.6586 68.8876 28.6709 67.9604 28.6115 67.0364C28.52 65.523 28.3379 64.0165 28.0663 62.525C28.0663 62.525 40.7601 62.8116 40.0208 64.6821C39.8052 65.2306 39.7713 66.1828 39.8298 67.249C39.8884 68.3152 40.0424 69.5201 40.2025 70.5401C40.4243 71.9391 40.6461 73.0053 40.6461 73.0053C40.6461 73.0053 39.8699 74.0931 39.414 74.1516C38.9581 74.2102 41.8905 83.2668 36.0565 81.0142Z" fill="#CF6F80"/>
<path d="M30.3888 179.75C30.1823 180.261 30.0255 180.79 29.9206 181.331C29.6637 182.812 29.5923 184.319 29.7081 185.817C29.822 187.974 29.7081 202.43 29.7081 202.43C29.7081 202.43 27.2716 206.285 25.9132 207.644C24.5548 209.003 28.6854 211.444 28.6854 211.444C29.3015 214.956 25.5682 218.925 25.5682 218.925C21.7733 214.334 17.1837 220.059 17.1837 220.059C17.1837 220.059 14.6887 215.745 14.0665 214.205C13.4443 212.664 16.503 211.598 17.578 210.972C18.653 210.346 17.5256 206.658 17.5256 206.658C17.5256 206.658 16.617 203.425 15.5389 200.476C14.4608 197.527 16.7279 182.847 16.7279 182.847C16.7279 182.847 16.8449 180.24 17.1252 179.331C17.2666 178.675 17.2948 177.999 17.2084 177.334C17.1899 177.109 17.1683 176.921 17.1529 176.795C17.1375 176.668 17.1252 176.61 17.1252 176.61L17.1683 176.536L18.7085 173.664C18.7085 173.664 31.1281 177.941 30.3888 179.75Z" fill="#1971FF"/>
<path d="M53.7372 215.468C53.7372 215.468 50.965 215.409 49.4864 216.701C48.0079 217.992 40.8617 216.984 41.1697 216.701C41.4778 216.417 41.4531 214.319 41.4531 214.319C37.2609 208.593 40.8371 206.27 40.8371 206.27C40.8371 206.27 38.9643 197.256 38.6254 193.913C38.3883 191.577 38.0956 185.3 37.9385 181.716C37.8708 180.175 37.8307 179.115 37.8307 179.115L41.256 178.425L41.6965 178.335L49.9577 176.678C49.9577 176.678 50.1857 178.218 50.3397 179.479C50.4165 180.017 50.4597 180.559 50.469 181.103C50.4136 181.719 50.469 183.648 50.469 183.648L50.7493 189.432C50.5662 190.039 50.4718 190.669 50.469 191.303C50.5245 192.039 51.5995 202.584 51.5995 202.584C51.5995 202.584 53.4692 208.877 52.8316 209.33C52.194 209.783 53.7372 215.468 53.7372 215.468Z" fill="#1971FF"/>
<path opacity="0.1" d="M40.0208 64.6821C39.8052 65.2306 39.7713 66.1828 39.8298 67.249C38.1296 68.2733 36.1749 68.797 34.1905 68.7599C32.2061 68.7229 30.2724 68.1265 28.6115 67.0394C28.5201 65.5251 28.338 64.0176 28.0663 62.525C28.0663 62.525 40.7601 62.8054 40.0208 64.6821Z" fill="black"/>
<path d="M44.9276 57.8719C44.9301 58.9823 44.7554 60.086 44.4101 61.1414C43.6384 63.506 42.0559 65.5216 39.9424 66.832C37.8288 68.1423 35.3203 68.6629 32.8602 68.3019C30.4 67.9409 28.1467 66.7214 26.4983 64.8591C24.85 62.9967 23.9128 60.6113 23.8525 58.1246C23.8525 58.0383 23.8525 57.9581 23.8525 57.8719C23.8285 56.4721 24.0835 55.0816 24.6024 53.7814C25.1213 52.4813 25.8938 51.2975 26.8748 50.2991C27.8558 49.3008 29.0257 48.5079 30.3163 47.9666C31.6068 47.4253 32.9922 47.1466 34.3916 47.1466C35.791 47.1466 37.1763 47.4253 38.4669 47.9666C39.7574 48.5079 40.9274 49.3008 41.9084 50.2991C42.8894 51.2975 43.6619 52.4813 44.1808 53.7814C44.6997 55.0816 44.9546 56.4721 44.9307 57.8719H44.9276Z" fill="#CF6F80"/>
<path opacity="0.1" d="M36.0565 81.0142C31.9906 79.4334 26.7603 74.2102 28.0663 71.7696C28.3564 71.1537 28.5287 70.489 28.5746 69.8098L34.1406 74.3858L37.5843 77.2116L40.2025 70.5432C40.4243 71.9422 40.6461 73.0084 40.6461 73.0084C40.6461 73.0084 39.8699 74.0962 39.414 74.1547C38.9581 74.2133 41.8905 83.2668 36.0565 81.0142Z" fill="black"/>
<path d="M50.4505 101.238L45.8024 179.355L39.7405 179.753L24.0434 134.457L26.6186 80.6814L27.1607 69.3198L34.1405 75.0545L37.5874 77.8803L40.2826 71.0177L45.2942 75.3873L50.4505 101.238Z" fill="#1971FF"/>
<path d="M41.3268 180.662C28.6977 182.819 17.1283 176.634 17.1283 176.634L17.2423 174.539C17.2423 174.539 17.5287 150.783 16.7309 148.962C15.9331 147.141 15.3171 137.906 15.7699 136.488C16.2227 135.071 14.1281 113.814 14.1281 113.814L13.7862 105.186L1.37892 100.141L6.92339 88.5794C7.67064 86.9577 8.31467 85.2903 8.85163 83.5873C9.81268 80.5859 14.2914 77.6369 14.2914 77.6369C14.2914 77.6369 18.881 74.6909 20.6922 74.8019C22.5033 74.9128 24.8844 72.1949 24.8844 72.1949C26.6432 67.7174 28.5807 69.745 28.5807 69.745C28.5807 69.9577 28.3959 70.0532 28.4944 70.4076C29.8498 75.1747 38.1172 90.8536 38.2681 91.1279L39.2877 115.675L40.3072 146.74L41.3268 180.662Z" fill="white"/>
<path opacity="0.1" d="M37.9232 91.8274C36.5648 91.2604 29.3693 83.0419 29.3693 83.0419V81.1714C29.1075 80.5551 27.5519 80.931 26.289 81.3625L26.8311 70.0008L27.4472 70.5124C28.7964 75.2764 37.7661 91.5531 37.9232 91.8274Z" fill="black"/>
<path d="M38.265 91.1464C36.9035 90.5793 29.7081 82.3609 29.7081 82.3609V80.4904C29.4462 79.8741 27.8907 80.25 26.6278 80.6814L27.173 69.3198L27.789 69.8313C29.1413 74.5954 38.1141 90.8752 38.265 91.1464Z" fill="white"/>
<path opacity="0.1" d="M17.4702 132.134C17.6396 132.134 26.252 131.228 26.252 131.228C26.252 131.228 31.4669 141.486 31.125 143.982C30.7831 146.478 30.164 148.688 28.0663 148.297C25.9686 147.905 16.7771 148.605 16.7771 148.605L17.4702 132.134Z" fill="black"/>
<path d="M17.1283 131.453C17.2977 131.453 25.9101 130.547 25.9101 130.547C25.9101 130.547 31.1219 140.808 30.7831 143.301C30.4443 145.794 29.819 148.007 27.7244 147.616C25.6298 147.224 16.4352 147.924 16.4352 147.924L17.1283 131.453Z" fill="white"/>
<path d="M23.6184 126.636C23.6184 126.636 31.5224 130.886 31.6918 132.183C31.8612 133.481 27.669 131.616 26.7634 131.391C26.1673 131.248 25.5606 131.153 24.9491 131.108L18.9087 131.271L23.6184 126.636Z" fill="#CF6F80"/>
<path d="M35.7177 92.0184C36.177 92.0184 36.5493 91.6459 36.5493 91.1864C36.5493 90.7269 36.177 90.3544 35.7177 90.3544C35.2583 90.3544 34.886 90.7269 34.886 91.1864C34.886 91.6459 35.2583 92.0184 35.7177 92.0184Z" fill="#3F3D56"/>
<path d="M37.2485 128.032C37.7079 128.032 38.0802 127.66 38.0802 127.2C38.0802 126.741 37.7079 126.368 37.2485 126.368C36.7892 126.368 36.4169 126.741 36.4169 127.2C36.4169 127.66 36.7892 128.032 37.2485 128.032Z" fill="#3F3D56"/>
<path d="M36.5462 110.027C37.0056 110.027 37.3779 109.654 37.3779 109.195C37.3779 108.735 37.0056 108.363 36.5462 108.363C36.0869 108.363 35.7146 108.735 35.7146 109.195C35.7146 109.654 36.0869 110.027 36.5462 110.027Z" fill="#3F3D56"/>
<path d="M55.7178 130.935C55.7178 130.935 56.2846 131.786 55.7178 132.183C55.151 132.581 55.7732 133.542 55.7732 133.542C55.7732 133.542 54.3594 134.371 54.9816 135.117C55.6038 135.863 55.2095 139.231 55.2095 139.231L53.5092 142.047C53.5092 142.047 53.6109 143.862 53.617 146.315C53.617 150.142 53.3922 155.523 52.1478 157.976L52.3203 178.101C52.3203 178.101 46.3661 180.277 41.3823 179.614L40.643 147.32C40.643 147.32 41.7211 129.006 42.1184 125.493C42.351 123.669 42.4457 121.831 42.4018 119.993C42.4018 119.993 42.2324 114.495 41.6626 111.944C41.6626 111.944 41.0465 100.89 40.9849 97.8302C40.9572 96.3665 41.0342 92.0954 41.1204 88.034C41.2159 83.5935 41.3237 79.4057 41.3237 79.4057L40.1994 70.5062C40.1994 70.5062 41.3237 70.3921 41.6626 70.8451C41.8143 70.987 41.9794 71.1139 42.1554 71.2242C44.096 72.5369 50.9526 76.5737 50.9526 76.5737C50.9526 76.5737 54.7475 78.0837 55.6562 80.2469C56.5649 82.4102 57.1963 83.9448 57.6368 84.5611C58.0773 85.1774 58.3175 88.074 58.3175 88.074C58.3175 88.074 59.6236 93.4051 60.6431 94.308C61.6627 95.2109 62.4081 100.955 62.4081 100.955L53.3984 108.042C53.3984 108.042 52.6067 119.832 52.4373 120.288C52.2679 120.745 55.7178 130.935 55.7178 130.935Z" fill="white"/>
<path d="M56.0597 130.935C56.0597 130.935 56.6234 131.786 56.0597 132.183C55.496 132.581 56.1121 133.542 56.1121 133.542C56.1121 133.542 54.7075 134.38 55.3235 135.126C55.9396 135.872 55.5515 139.24 55.5515 139.24L53.8512 142.056C53.8512 142.056 53.9528 143.871 53.962 146.324C53.962 150.152 53.7372 155.532 52.4928 157.985L52.6622 178.11C52.6622 178.11 46.6988 180.286 41.7211 179.624L40.9849 147.329C40.9849 147.329 42.063 129.015 42.4603 125.502C42.6931 123.679 42.7869 121.84 42.7407 120.002C42.7407 120.002 42.5712 114.504 42.0045 111.953C42.0045 111.953 41.3884 100.899 41.3237 97.8394C41.296 96.3757 41.3761 92.1047 41.4593 88.0432C41.5547 83.6027 41.6626 79.4149 41.6626 79.4149L40.1779 70.3952C40.1779 70.3952 41.6626 70.3952 42.0045 70.8544C42.1548 70.9979 42.32 71.125 42.4973 71.2334C44.4379 72.5461 51.2976 76.583 51.2976 76.583C51.2976 76.583 55.0894 78.0929 55.9981 80.2562C56.9068 82.4194 57.5382 83.954 57.9818 84.5703C58.4253 85.1866 58.6594 88.0833 58.6594 88.0833C58.6594 88.0833 59.9655 93.4143 60.985 94.3172C62.0046 95.2201 62.7408 100.952 62.7408 100.952L53.731 108.039C53.731 108.039 52.9394 119.829 52.7669 120.285C52.5944 120.741 56.0597 130.935 56.0597 130.935Z" fill="white"/>
<path opacity="0.1" d="M45.2696 82.0311L46.0828 84.4039L41.8012 88.7181C41.8967 84.2807 42.0045 80.0898 42.0045 80.0898L40.5198 71.0701C40.5198 71.0701 42.0045 71.0701 42.3464 71.5292C42.4963 71.6724 42.6616 71.7984 42.8392 71.9052L46.4801 82.4132L45.2696 82.0311Z" fill="black"/>
<path d="M44.9276 81.3501L45.7439 83.7229L41.4623 88.0371C41.5578 83.5966 41.6656 79.4088 41.6656 79.4088L40.1779 70.3891C40.1779 70.3891 41.6656 70.3891 42.0045 70.8482C42.1556 70.9909 42.3207 71.1179 42.4973 71.2273L46.1413 81.7322L44.9276 81.3501Z" fill="white"/>
<path opacity="0.1" d="M44.9276 57.8719C44.9301 58.9823 44.7554 60.086 44.4101 61.1414C44.3519 61.1505 44.2925 61.1478 44.2354 61.1335C44.1782 61.1192 44.1245 61.0936 44.0775 61.0582C43.9974 58.2848 42.6328 55.6809 40.9541 53.4653C40.4828 52.7963 39.9114 52.2039 39.2599 51.7088C38.6013 51.2139 37.7822 50.9821 36.9621 51.0586C36.038 51.1849 35.2217 51.8136 34.2884 51.8937C33.0563 51.9954 31.9536 51.1418 30.7307 51.0986C30.2336 51.1034 29.7432 51.2141 29.2922 51.4235C28.8412 51.6328 28.4401 51.936 28.1156 52.3128C27.4731 53.0731 26.9958 53.9588 26.714 54.9136C26.2297 56.3614 25.966 57.8739 25.9316 59.4003C25.9162 60.2631 25.8331 61.3448 25.0322 61.6591C25.0925 61.0245 25.0204 60.3843 24.8205 59.7791C24.6206 59.1739 24.2973 58.6168 23.871 58.143L23.8525 58.1246C23.8525 58.0383 23.8525 57.9581 23.8525 57.8719C23.8285 56.4721 24.0835 55.0816 24.6024 53.7814C25.1213 52.4813 25.8938 51.2975 26.8748 50.2991C27.8558 49.3008 29.0257 48.5079 30.3163 47.9666C31.6068 47.4253 32.9922 47.1466 34.3916 47.1466C35.791 47.1466 37.1763 47.4253 38.4669 47.9666C39.7574 48.5079 40.9274 49.3008 41.9084 50.2991C42.8894 51.2975 43.6619 52.4813 44.1808 53.7814C44.6997 55.0816 44.9546 56.4721 44.9307 57.8719H44.9276Z" fill="black"/>
<path d="M38.7548 41.1298C37.1542 40.3766 35.3337 40.2341 33.6354 40.7292C32.7822 40.9819 31.9782 41.3918 31.1127 41.5982C29.2645 42.0451 27.1084 41.5613 25.522 42.6429C24.6411 43.2592 24.1113 44.233 23.6184 45.179L22.3863 47.5271C21.7148 48.8121 21.0372 50.1187 20.7569 51.5331C20.4766 52.9475 20.646 54.5315 21.5423 55.6686C22.1953 56.4975 23.1595 57.0183 23.8679 57.7979C24.2923 58.2721 24.6143 58.8289 24.8136 59.4334C25.0129 60.0379 25.0852 60.6771 25.0261 61.3109C25.83 61.0027 25.907 59.918 25.9255 59.0552C25.9599 57.5288 26.2236 56.0163 26.7079 54.5684C26.9891 53.6134 27.4664 52.7275 28.1094 51.9676C28.4342 51.5912 28.8354 51.2882 29.2863 51.0789C29.7372 50.8695 30.2275 50.7586 30.7246 50.7535C31.9567 50.7966 33.0625 51.6471 34.2823 51.5454C35.2064 51.4684 36.0257 50.8367 36.9559 50.7134C37.7762 50.6358 38.5958 50.8677 39.2538 51.3636C39.905 51.858 40.4755 52.4505 40.9449 53.1201C42.6267 55.3357 43.9913 57.9335 44.0713 60.713C44.4194 60.9688 44.9215 60.636 45.094 60.2416C45.2665 59.8471 45.2726 59.3849 45.4913 59.0089C45.7439 58.5744 46.2275 58.3433 46.6064 58.0167C47.5674 57.1878 47.8077 55.7918 47.7707 54.5253C47.7338 53.2588 47.4874 51.9738 47.7276 50.7288C47.8724 49.9646 48.1989 49.2497 48.3776 48.4947C48.5562 47.7397 48.5778 46.8923 48.1558 46.2421C47.5397 45.2868 46.2429 45.0989 45.1125 45.0095C43.828 44.8986 42.6791 45.0403 41.8597 43.9587C41.4751 43.3943 41.0422 42.8643 40.566 42.3748C40.4028 42.2145 38.7548 41.1976 38.7548 41.1298Z" fill="#512E4E"/>
<path d="M2.22601 99.4819L1.37586 100.16L0.356293 109.346C0.356293 109.346 0.923061 113.426 0.809091 114.051C0.695122 114.677 3.13469 120.285 3.13469 120.285C3.13469 120.285 11.1803 134.627 14.467 135.366L25.5744 127.428L22.6266 123.687C22.6266 123.687 21.607 123.29 21.3514 123.687C21.3514 123.687 15.8839 114.276 15.3171 113.595C14.7504 112.914 14.8643 111.555 14.8643 111.555C14.8643 111.555 14.0142 110.649 14.2976 109.799C14.5809 108.948 12.6527 105.999 12.6527 105.999L14.4085 104.357L2.22601 99.4819Z" fill="white"/>
<path opacity="0.1" d="M54.9816 135.468C55.5977 136.217 55.2096 139.579 55.2096 139.579L53.5093 142.395C53.5093 142.395 53.6109 144.214 53.6171 146.663L50.7586 147.557C50.5003 147.638 50.2264 147.655 49.9598 147.609C49.6932 147.562 49.4417 147.452 49.2261 147.289C49.0106 147.125 48.8374 146.912 48.7208 146.667C48.6043 146.423 48.5478 146.154 48.5562 145.884L49.0491 129.98L55.7178 132.531C55.1511 132.926 55.7733 133.893 55.7733 133.893C55.7733 133.893 54.3594 134.719 54.9816 135.468Z" fill="black"/>
<path d="M55.3235 135.126C55.9396 135.875 55.5515 139.24 55.5515 139.24L53.8512 142.057C53.8512 142.057 53.9528 143.872 53.962 146.324L51.0512 147.233C50.7982 147.312 50.5301 147.329 50.2692 147.283C50.0082 147.237 49.7621 147.13 49.5511 146.969C49.3402 146.809 49.1706 146.6 49.0565 146.361C48.9424 146.122 48.887 145.859 48.895 145.594L49.3909 129.641L56.0628 132.192C55.4929 132.587 56.1151 133.551 56.1151 133.551C56.1151 133.551 54.7075 134.38 55.3235 135.126Z" fill="white"/>
<path d="M57.5321 127.546C57.5321 127.546 57.0793 130.439 55.9457 130.609C54.8122 130.778 54.304 135.289 53.1735 135.129C52.043 134.969 52.7916 130.935 52.8316 130.153C52.8716 129.37 51.5995 126.128 52.5513 125.392C53.5031 124.655 56.5156 125.392 56.5156 125.392L57.5321 127.546Z" fill="#CF6F80"/>
<path opacity="0.1" d="M59.9439 105.263L62.0816 100.949C62.0816 100.949 62.9318 104.237 62.9318 105.993C62.9318 107.75 64.1208 107.922 64.1208 107.922C64.1208 107.922 65.4237 109.463 64.7368 110.585C64.0499 111.706 63.7727 114.498 63.7727 114.498C63.7727 114.498 63.9976 119.826 62.978 120.563C61.9584 121.299 61.7459 123.059 61.7459 123.059C61.7459 123.059 59.8731 126.402 59.9316 127.197C59.9901 127.992 57.3257 133.376 57.3257 133.376C57.3257 133.376 58.6287 126.686 51.0358 123.795C51.0358 123.795 50.9773 121.524 51.5441 120.902C52.1108 120.279 52.9949 119.996 52.4404 116.849C51.886 113.703 52.2803 109.944 52.2803 109.189C52.2803 108.434 53.9806 103.725 53.9806 103.725L59.9439 105.263Z" fill="black"/>
<path d="M60.868 100.332L62.7347 100.949C62.7347 100.949 63.5879 104.237 63.5879 105.993C63.5879 107.75 64.7769 107.922 64.7769 107.922C64.7769 107.922 66.0798 109.463 65.3929 110.585C64.706 111.706 64.4319 114.498 64.4319 114.498C64.4319 114.498 64.6567 119.826 63.6372 120.563C62.6176 121.299 62.3897 123.059 62.3897 123.059C62.3897 123.059 60.52 126.402 60.5785 127.197C60.637 127.992 57.9695 133.376 57.9695 133.376C57.9695 133.376 59.2755 126.686 51.6796 123.795C51.6796 123.795 51.6242 121.524 52.1909 120.902C52.7577 120.279 53.6417 119.996 53.0873 116.849C52.5328 113.703 52.9271 109.944 52.9271 109.189C52.9271 108.434 54.6274 103.725 54.6274 103.725L60.868 100.332Z" fill="white"/>
<path opacity="0.1" d="M19.6387 212.152C19.6387 212.152 22.6143 210.282 24.5671 211.641C26.52 213 19.6387 212.152 19.6387 212.152Z" fill="black"/>
<path opacity="0.1" d="M42.7591 206.368C42.7591 206.368 45.3927 206.029 47.6044 208.411C49.816 210.793 42.7591 206.368 42.7591 206.368Z" fill="black"/>
<g opacity="0.1">
<path d="M46.6126 57.3418C46.2337 57.6685 45.7471 57.9027 45.4945 58.3372C45.2789 58.71 45.2727 59.1692 45.1002 59.5698C44.9277 59.9704 44.4256 60.297 44.0776 60.0443C43.9975 57.2709 42.6298 54.667 40.9511 52.4483C40.4817 51.7787 39.9113 51.1862 39.26 50.6919C38.6008 50.196 37.7802 49.9641 36.9591 50.0417C36.035 50.168 35.2218 50.7966 34.2885 50.8737C33.0564 50.9784 31.9506 50.1249 30.7277 50.0817C30.2308 50.0867 29.7406 50.1978 29.2901 50.4078C28.8396 50.6177 28.4392 50.9215 28.1157 51.2989C27.4726 52.0577 26.9952 52.9425 26.7141 53.8967C26.2301 55.3446 25.9663 56.857 25.9317 58.3834C25.9133 59.2431 25.8332 60.3155 25.0385 60.636C25.057 60.8636 25.057 61.0924 25.0385 61.3201C25.8393 61.0119 25.9194 59.9272 25.9379 59.0644C25.9722 57.538 26.236 56.0255 26.7203 54.5777C27.0014 53.6226 27.4788 52.7368 28.1218 51.9769C28.446 51.6005 28.8467 51.2975 29.2971 51.0882C29.7474 50.8788 30.2373 50.7679 30.7339 50.7627C31.966 50.8059 33.0749 51.6564 34.2947 51.5547C35.2187 51.4776 36.0381 50.8459 36.9652 50.7227C37.7864 50.6451 38.6069 50.877 39.2662 51.3729C39.9174 51.8672 40.4879 52.4598 40.9573 53.1294C42.636 55.345 44.0036 57.9427 44.0837 60.7223C44.4318 60.978 44.9339 60.6452 45.1064 60.2508C45.2789 59.8564 45.285 59.3941 45.5006 59.0182C45.7532 58.5837 46.2399 58.3526 46.6188 58.0259C47.5798 57.197 47.8201 55.8011 47.7831 54.5345C47.7831 54.4945 47.7831 54.4544 47.7831 54.4174C47.7246 55.5145 47.432 56.6331 46.6126 57.3418Z" fill="black"/>
<path d="M23.8741 57.123C23.1657 56.3434 22.1985 55.8226 21.5485 54.9968C21.0013 54.2657 20.6887 53.3856 20.6522 52.473C20.5552 53.6135 20.8736 54.7505 21.5485 55.6747C22.1985 56.5036 23.1657 57.0244 23.8741 57.8041C24.5543 58.5667 24.9627 59.5333 25.0354 60.5528C25.0825 59.9323 25.004 59.3088 24.8044 58.7194C24.6049 58.1301 24.2885 57.5871 23.8741 57.123Z" fill="black"/>
<path d="M48.3838 47.8199C48.202 48.5748 47.8786 49.2928 47.7308 50.054C47.6432 50.5626 47.6112 51.0792 47.6353 51.5947C47.6456 51.3011 47.6775 51.0086 47.7308 50.7196C47.8786 49.9554 48.202 49.2405 48.3838 48.4855C48.4897 48.0691 48.5241 47.6377 48.4854 47.2097C48.4663 47.4153 48.4323 47.6192 48.3838 47.8199Z" fill="black"/>
</g>
</g>
<defs>
<linearGradient id="paint0_linear_4_276" x1="216.202" y1="224.492" x2="216.202" y2="47.9572" gradientUnits="userSpaceOnUse">
<stop stop-color="#808080" stop-opacity="0.25"/>
<stop offset="0.54" stop-color="#808080" stop-opacity="0.12"/>
<stop offset="1" stop-color="#808080" stop-opacity="0.1"/>
</linearGradient>
<linearGradient id="paint1_linear_4_276" x1="33.0132" y1="229.082" x2="33.0132" y2="39.4627" gradientUnits="userSpaceOnUse">
<stop stop-color="#808080" stop-opacity="0.25"/>
<stop offset="0.54" stop-color="#808080" stop-opacity="0.12"/>
<stop offset="1" stop-color="#808080" stop-opacity="0.1"/>
</linearGradient>
<clipPath id="clip0_4_276">
<rect width="288" height="270" fill="white" transform="translate(0.970581 0.0107422)"/>
</clipPath>
</defs>
</svg>
