<svg width="24" height="24" viewBox="0 0 24 24" fill="none" xmlns="http://www.w3.org/2000/svg">
<path fill-rule="evenodd" clip-rule="evenodd" d="M16.248 11.03H7.75202C7.33802 11.03 7.00202 10.694 7.00202 10.28C7.00202 9.866 7.33802 9.53 7.75202 9.53H16.248C16.662 9.53 16.998 9.866 16.998 10.28C16.998 10.694 16.662 11.03 16.248 11.03ZM19.368 5.327C18.645 4.602 17.614 4.193 16.386 4.091V3.125C16.386 2.711 16.05 2.375 15.636 2.375C15.222 2.375 14.886 2.711 14.886 3.125V6.674C14.821 6.692 14.757 6.714 14.686 6.714C14.272 6.714 13.936 6.378 13.936 5.964V4.246C13.936 4.13554 13.8465 4.046 13.736 4.046H9.11302V3.125C9.11302 2.711 8.77702 2.375 8.36302 2.375C7.94902 2.375 7.61302 2.711 7.61302 3.125V6.674C7.54802 6.692 7.48403 6.714 7.41302 6.714C6.99902 6.714 6.66302 6.378 6.66302 5.964V4.49988C6.66302 4.36985 6.54048 4.27435 6.41597 4.31185C4.50629 4.8871 3.40002 6.43791 3.40002 8.725V16.87C3.40002 19.848 5.19202 21.625 8.19302 21.625H15.806C18.808 21.625 20.6 19.873 20.6 16.939V8.726C20.604 7.314 20.178 6.139 19.368 5.327Z" fill="#1971FF"/>
</svg>
