<?xml version="1.0" encoding="UTF-8"?>
<svg width="24" height="24" viewBox="0 0 24 24" fill="none" xmlns="http://www.w3.org/2000/svg">
<path fill-rule="evenodd" clip-rule="evenodd" d="M8.35402 19.2002L9.45339 20.2996C9.89995 20.7461 10.6238 20.7461 11.0704 20.2996L12.1697 19.2002C12.483 18.8869 12.9072 18.7118 13.3499 18.7118H14.1768C15.859 18.7118 17.223 17.3478 17.223 15.6647V10.3157C17.223 8.63354 15.859 7.26953 14.1768 7.26953H6.3479C4.66479 7.26953 3.30078 8.63354 3.30078 10.3157V15.6647C3.30078 17.3478 4.66479 18.7118 6.3479 18.7118H7.17389C7.61656 18.7118 8.04074 18.8869 8.35402 19.2002Z" stroke="#000000" stroke-width="1.5" stroke-linecap="round" stroke-linejoin="round"></path>
<path d="M7.37891 7.26979V6.49147C7.37891 4.8103 8.74096 3.44922 10.4289 3.44922H18.2579C19.939 3.44922 21.3011 4.8103 21.3011 6.49147V11.8414C21.3011 13.5294 19.939 14.8905 18.2579 14.8905H17.4319C17.3618 14.8905 17.2927 14.8983 17.2227 14.9051" stroke="#000000" stroke-width="1.5" stroke-linecap="round" stroke-linejoin="round"></path>
<path d="M12.4541 13.1211V13.1909M12.737 13.1361C12.737 13.2932 12.6095 13.4206 12.4524 13.4206C12.2953 13.4206 12.168 13.2932 12.168 13.1361C12.168 12.9789 12.2953 12.8516 12.4524 12.8516C12.6095 12.8516 12.737 12.9789 12.737 13.1361Z" stroke="#000000" stroke-width="1.5" stroke-linecap="round" stroke-linejoin="round"></path>
<path d="M7.76858 13.1211V13.1909M8.05144 13.1361C8.05144 13.2932 7.92397 13.4206 7.76685 13.4206C7.60972 13.4206 7.48242 13.2932 7.48242 13.1361C7.48242 12.9789 7.60972 12.8516 7.76685 12.8516C7.92397 12.8516 8.05144 12.9789 8.05144 13.1361Z" stroke="#000000" stroke-width="1.5" stroke-linecap="round" stroke-linejoin="round"></path>
</svg>