<svg width="24" height="24" viewBox="0 0 24 24" fill="none" xmlns="http://www.w3.org/2000/svg">
<path d="M5.78326 19.2458C4.53893 19.2458 3.787 18.3514 3.73376 17.1057C3.73376 14.57 6.21136 13.6953 9.94439 13.6659C13.6841 13.7052 16.1683 14.5799 16.1549 17.1057C16.0951 18.3514 15.3476 19.2458 14.1055 19.2458H5.78326Z" stroke="#8E8E8E" stroke-width="1.38462" stroke-miterlimit="10"/>
<path d="M17.4866 19.1062C18.6659 19.1062 19.3757 18.257 19.4325 17.0743C19.4402 15.6272 18.5846 14.751 17.1248 14.2752" stroke="#8E8E8E" stroke-width="1.38462" stroke-miterlimit="10" stroke-linecap="round"/>
<path d="M9.72285 11.2426C11.5141 11.2426 12.9662 9.79057 12.9662 7.99933C12.9662 6.20809 11.5141 4.75601 9.72285 4.75601C7.93164 4.75601 6.47955 6.20809 6.47955 7.99933C6.47955 9.79057 7.93164 11.2426 9.72285 11.2426Z" stroke="#8E8E8E" stroke-width="1.38462" stroke-miterlimit="10"/>
<path d="M15.0054 5.55649C16.0728 5.95411 16.833 6.98245 16.833 8.18835C16.833 9.39425 16.0728 10.4226 15.0054 10.8202" stroke="#8E8E8E" stroke-width="1.38462" stroke-miterlimit="10" stroke-linecap="round"/>
</svg>
