<svg width="24" height="24" viewBox="0 0 24 24" fill="none" xmlns="http://www.w3.org/2000/svg">
<path d="M5.51941 8.00676C5.51941 10.068 7.19756 11.7461 9.25882 11.7461C11.3201 11.7461 12.9973 10.068 12.9973 8.00676C12.9973 5.94553 11.3201 4.26923 9.25882 4.26923C7.19756 4.26923 5.51941 5.94553 5.51941 8.00676Z" fill="#1971FF"/>
<path d="M4.91063 19.7323H13.5968C15.0719 19.7323 16.1177 18.7465 16.1999 17.2557C16.2137 13.6211 10.9846 13.5681 9.25006 13.5505H9.24544H9.24203C7.52343 13.5634 2.30756 13.6027 2.30847 17.2751C2.3777 18.7446 3.42263 19.7323 4.91063 19.7323Z" fill="#1971FF"/>
<path d="M18.0553 18.0804C17.6731 18.0804 17.3159 17.8413 17.1839 17.4601C17.0159 16.9792 17.2707 16.4521 17.7524 16.2859C18.1558 16.1447 18.262 15.7635 18.2786 15.469L18.2787 15.4676C18.2796 15.1517 18.2821 14.3044 16.2414 13.8767C15.7429 13.7724 15.4227 13.2841 15.5278 12.7847C15.6321 12.2853 16.1223 11.9659 16.6199 12.0702C19.5304 12.6786 20.1312 14.2875 20.123 15.529C20.0528 16.753 19.3928 17.6696 18.358 18.0287C18.2584 18.0638 18.155 18.0804 18.0553 18.0804Z" fill="#1971FF"/>
<path d="M13.8214 11.0097C13.9516 11.3946 14.3107 11.6374 14.6956 11.6374C14.7934 11.6374 14.8941 11.6217 14.991 11.5885C16.3608 11.1251 17.2802 9.84204 17.2802 8.39373C17.2802 6.84296 16.2288 5.49712 14.7251 5.12143C14.223 5.00143 13.7291 5.3005 13.6054 5.79435C13.4836 6.28912 13.7845 6.79035 14.2784 6.91404C14.9587 7.08296 15.4341 7.69219 15.4341 8.39373C15.4341 9.04912 15.0187 9.63066 14.4002 9.84019C13.9165 10.0027 13.6581 10.5279 13.8214 11.0097Z" fill="#1971FF"/>
</svg>
